<?xml version="1.0" encoding="utf-8"?>
<!-- Generator: Adobe Illustrator 24.1.3, SVG Export Plug-In . SVG Version: 6.00 Build 0)  -->
<svg version="1.1" id="Calque_01" xmlns="http://www.w3.org/2000/svg" xmlns:xlink="http://www.w3.org/1999/xlink" x="0px" y="0px"
	 viewBox="0 0 738.4 730.4" style="enable-background:new 0 0 738.4 730.4;" xml:space="preserve">
<style type="text/css">
	.st0{fill:none;stroke:#AFAFAF;stroke-width:36;stroke-linecap:round;stroke-linejoin:round;}
</style>
<line class="st0" x1="123.5" y1="295.7" x2="123.5" y2="537.8"/>
<line class="st0" x1="196.1" y1="610.5" x2="438.2" y2="610.5"/>
<line class="st0" x1="594.1" y1="197.6" x2="525.7" y2="539.4"/>
<path class="st0" d="M448,574.1c4.6-7.9,10.6-14.9,17.8-20.6c7.8-6.2,16.7-10.7,26.3-13.2c9.6-2.6,19.6-3.1,29.4-1.7
	c9.1,1.3,17.8,4.4,25.7,9c7.9,4.6,14.9,10.6,20.6,17.8c6.2,7.8,10.7,16.7,13.2,26.3c2.6,9.6,3.1,19.6,1.7,29.4
	c-1.3,9.1-4.4,17.8-9,25.7c-4.6,7.9-10.6,14.9-17.8,20.6c-7.8,6.2-16.7,10.7-26.3,13.2c-9.6,2.6-19.6,3.1-29.4,1.7
	c-9.1-1.3-17.8-4.4-25.7-9c-7.9-4.6-14.9-10.6-20.6-17.8c-6.2-7.8-10.7-16.7-13.2-26.3c-2.6-9.6-3.1-19.6-1.7-29.4
	C440.3,590.8,443.4,582,448,574.1z"/>
<path class="st0" d="M544.8,89.9c4.6-7.9,10.6-14.9,17.8-20.6c7.8-6.2,16.7-10.7,26.3-13.2c9.6-2.6,19.6-3.1,29.4-1.7
	c9.1,1.3,17.8,4.4,25.7,9C652,68,658.9,74,664.6,81.2c6.2,7.8,10.7,16.7,13.2,26.3c2.6,9.6,3.1,19.6,1.7,29.4
	c-1.3,9.1-4.4,17.8-9,25.7c-4.6,7.9-10.6,14.9-17.8,20.6c-7.8,6.2-16.7,10.7-26.3,13.2c-9.6,2.6-19.6,3.1-29.4,1.7
	c-9.1-1.3-17.8-4.4-25.7-9c-7.9-4.6-14.9-10.6-20.6-17.8c-6.2-7.8-10.7-16.7-13.2-26.3c-2.6-9.6-3.1-19.6-1.7-29.4
	C537.2,106.6,540.2,97.8,544.8,89.9z"/>
<path class="st0" d="M60.6,574.1c4.6-7.9,10.6-14.9,17.8-20.6c7.8-6.2,16.7-10.7,26.3-13.2c9.6-2.6,19.6-3.1,29.4-1.7
	c9.1,1.3,17.8,4.4,25.7,9c7.9,4.6,14.9,10.6,20.6,17.8c6.2,7.8,10.7,16.7,13.2,26.3c2.6,9.6,3.1,19.6,1.7,29.4
	c-1.3,9.1-4.4,17.8-9,25.7c-4.6,7.9-10.6,14.9-17.8,20.6c-7.8,6.2-16.7,10.7-26.3,13.2c-9.6,2.6-19.6,3.1-29.4,1.7
	c-9.1-1.3-17.8-4.4-25.7-9c-7.9-4.6-14.9-10.6-20.6-17.8c-6.2-7.8-10.7-16.7-13.2-26.3c-2.6-9.6-3.1-19.6-1.7-29.4
	C53,590.8,56,582,60.6,574.1z"/>
<path class="st0" d="M60.6,186.7c4.6-7.9,10.6-14.9,17.8-20.6c7.8-6.2,16.7-10.7,26.3-13.2c9.6-2.6,19.6-3.1,29.4-1.7
	c9.1,1.3,17.8,4.4,25.7,9c7.9,4.6,14.9,10.6,20.6,17.8c6.2,7.8,10.7,16.7,13.2,26.3c2.6,9.6,3.1,19.6,1.7,29.4
	c-1.3,9.1-4.4,17.8-9,25.7c-4.6,7.9-10.6,14.9-17.8,20.6c-7.8,6.2-16.7,10.7-26.3,13.2c-9.6,2.6-19.6,3.1-29.4,1.7
	c-9.1-1.3-17.8-4.4-25.7-9c-7.9-4.6-14.9-10.6-20.6-17.8c-6.2-7.8-10.7-16.7-13.2-26.3c-2.6-9.6-3.1-19.6-1.7-29.4
	C53,203.4,56,194.7,60.6,186.7z"/>
<line class="st0" x1="194.7" y1="208.9" x2="536.4" y2="140.5"/>
</svg>
