<svg id="Calque_1" data-name="Calque 1" xmlns="http://www.w3.org/2000/svg" viewBox="0 0 60.55 17">
  <defs>
    <style>.cls-1,.cls-4{isolation:isolate;}.cls-2,.cls-3,.cls-4{fill:#afafaf;}.cls-3,.cls-4{fill-rule:evenodd;}.cls-4{opacity:0.9;}</style>
  </defs>
  <g class="cls-1">
    <path class="cls-2" d="M25,20.29a7,7,0,0,1-6.53-4,10,10,0,0,1-.94-4.47,9.93,9.93,0,0,1,1-4.46,7.26,7.26,0,0,1,2.67-3,7.34,7.34,0,0,1,4-1.06,7.46,7.46,0,0,1,4.29,1.23,6.76,6.76,0,0,1,2.62,3.39l-1.93.73a5.2,5.2,0,0,0-1.89-2.49,5.28,5.28,0,0,0-3.09-.88,5.33,5.33,0,0,0-2.92.8,5.16,5.16,0,0,0-1.92,2.25,8.15,8.15,0,0,0-.68,3.46,8.18,8.18,0,0,0,.68,3.46,5.11,5.11,0,0,0,1.92,2.27,5.33,5.33,0,0,0,2.92.8,6.76,6.76,0,0,0,1.75-.24,4.56,4.56,0,0,0,1.65-.82,4.07,4.07,0,0,0,1.21-1.62,6.31,6.31,0,0,0,.46-2.6v-1.2l.47,1.41H26.07V11.38h6V20H30.22l-.28-3.21.35.26a4.54,4.54,0,0,1-1.22,1.84A5.34,5.34,0,0,1,27.21,20,6.86,6.86,0,0,1,25,20.29Z" transform="translate(-0.14 -3.29)"/>
    <path class="cls-2" d="M35.31,20V8.38h2V11.5l-.52.11a3.68,3.68,0,0,1,.79-1.8,4.48,4.48,0,0,1,1.46-1.19,3.68,3.68,0,0,1,1.64-.43,4.42,4.42,0,0,1,1,.12,4,4,0,0,1,1,.4l-1,1.79a3.27,3.27,0,0,0-.67-.23,3.36,3.36,0,0,0-.74-.1,3.14,3.14,0,0,0-1.12.22,2.85,2.85,0,0,0-1,.66,3,3,0,0,0-.68,1.2,6,6,0,0,0-.15.86,13.61,13.61,0,0,0-.06,1.45V20Z" transform="translate(-0.14 -3.29)"/>
    <path class="cls-2" d="M44.7,6.28V3.57h2.36V6.28ZM44.89,20V8.38h2V20Z" transform="translate(-0.14 -3.29)"/>
    <path class="cls-2" d="M55,20.2a4.94,4.94,0,0,1-2.77-.79,5.35,5.35,0,0,1-1.85-2.16,7,7,0,0,1-.66-3.07A6.66,6.66,0,0,1,50.41,11a5.13,5.13,0,0,1,1.91-2.08A5.06,5.06,0,0,1,55,8.19a4.39,4.39,0,0,1,4.29,3.28l-.56.38V3.57h2V20h-2V16.54l.66.21a5.67,5.67,0,0,1-.92,1.8A4.47,4.47,0,0,1,57,19.76,4.37,4.37,0,0,1,55,20.2Zm.33-1.84a3.3,3.3,0,0,0,1.86-.53,3.56,3.56,0,0,0,1.25-1.48,5,5,0,0,0,.45-2.17A5,5,0,0,0,58.42,12a3.54,3.54,0,0,0-1.25-1.47A3.3,3.3,0,0,0,55.31,10a3.36,3.36,0,0,0-1.87.53A3.6,3.6,0,0,0,52.16,12a5,5,0,0,0-.46,2.17,5,5,0,0,0,.46,2.17,3.63,3.63,0,0,0,1.28,1.48A3.36,3.36,0,0,0,55.31,18.36Z" transform="translate(-0.14 -3.29)"/>
  </g>
  <g id="Symbols">
    <g id="filter-_-grid" data-name="filter-/-grid">
      <g id="Group-3">
        <path id="Rectangle-4" class="cls-3" d="M2.1,7.27h0a2,2,0,0,1,2,2h0a2,2,0,0,1-2,2h0a2,2,0,0,1-2-2h0A2,2,0,0,1,2.1,7.27Z" transform="translate(-0.14 -3.29)"/>
        <path id="Rectangle-4-2" data-name="Rectangle-4" class="cls-4" d="M9.18,7.27h0a2,2,0,0,1,2,2h0a2,2,0,0,1-2,2h0a2,2,0,0,1-2-2h0A2,2,0,0,1,9.18,7.27Z" transform="translate(-0.14 -3.29)"/>
        <path id="Rectangle-4-3" data-name="Rectangle-4" class="cls-3" d="M2.1,14.34h0a2,2,0,0,1,2,2h0a2,2,0,0,1-2,2h0a2,2,0,0,1-2-2h0A2,2,0,0,1,2.1,14.34Z" transform="translate(-0.14 -3.29)"/>
        <path id="Rectangle-4-4" data-name="Rectangle-4" class="cls-3" d="M9.18,14.34h0a2,2,0,0,1,2,2h0a2,2,0,0,1-2,2h0a2,2,0,0,1-2-2h0A2,2,0,0,1,9.18,14.34Z" transform="translate(-0.14 -3.29)"/>
      </g>
    </g>
  </g>
</svg>