<?xml version="1.0" encoding="utf-8"?>
<!-- Generator: Adobe Illustrator 24.1.3, SVG Export Plug-In . SVG Version: 6.00 Build 0)  -->
<svg version="1.1" id="Calque_1" xmlns="http://www.w3.org/2000/svg" xmlns:xlink="http://www.w3.org/1999/xlink" x="0px" y="0px"
	 viewBox="0 0 30 30" style="enable-background:new 0 0 30 30;" xml:space="preserve">
<style type="text/css">
	.st0{fill:#EC623D;}
</style>
<path class="st0" d="M9.3,0.5c-4.8,0-8.8,4-8.8,8.8v11.5c0,4.8,4,8.8,8.8,8.8h11.5c4.8,0,8.8-4,8.8-8.8V9.3c0-4.8-4-8.8-8.8-8.8H9.3
	z M9.3,2.8h11.5c3.6,0,6.5,2.9,6.5,6.5v11.5c0,3.6-2.9,6.5-6.5,6.5H9.3c-3.6,0-6.5-2.9-6.5-6.5V9.3C2.8,5.7,5.7,2.8,9.3,2.8z
	 M22.7,5.8c-0.8,0-1.5,0.7-1.5,1.5s0.7,1.5,1.5,1.5s1.5-0.7,1.5-1.5S23.5,5.8,22.7,5.8z M15,7.3c-4.2,0-7.7,3.4-7.7,7.7
	s3.4,7.7,7.7,7.7s7.7-3.4,7.7-7.7S19.2,7.3,15,7.3z M15,9.6c3,0,5.4,2.4,5.4,5.4S18,20.4,15,20.4S9.6,18,9.6,15S12,9.6,15,9.6z"/>
</svg>
