<svg id="Calque_1" data-name="Calque 1" xmlns="http://www.w3.org/2000/svg" viewBox="0 0 51.82 16.62">
  <defs>
    <style>.cls-1{fill:#afafaf;}.cls-2{isolation:isolate;}</style>
  </defs>
  <g id="Symbols">
    <g id="filter-_-list" data-name="filter- -list">
      <g id="Group-3-Copy">
        <rect id="Rectangle-4" class="cls-1" y="3.92" width="11.28" height="1.5"/>
        <rect id="Rectangle-4-2" class="cls-1" y="12.98" width="11.28" height="1.5"/>
        <rect id="Rectangle-4-Copy" class="cls-1" y="8.45" width="11.28" height="1.5"/>
      </g>
    </g>
  </g>
  <g class="cls-2">
    <path class="cls-1" d="M18.24,20V3.57h2.08V18.15h7.35V20Z" transform="translate(0 -3.57)"/>
    <path class="cls-1" d="M29.54,6.28V3.57H31.9V6.28ZM29.73,20V8.38h2V20Z" transform="translate(0 -3.57)"/>
    <path class="cls-1" d="M38.92,20.2a5.93,5.93,0,0,1-2.12-.36,5.15,5.15,0,0,1-1.62-.94,5.61,5.61,0,0,1-1.07-1.25l1.39-1.18A3.76,3.76,0,0,0,39,18.52a3,3,0,0,0,1.76-.47,1.49,1.49,0,0,0,.67-1.27,1.36,1.36,0,0,0-.41-1,2.85,2.85,0,0,0-1.06-.61,14.57,14.57,0,0,0-1.44-.43c-.44-.11-.88-.24-1.33-.4a5.44,5.44,0,0,1-1.21-.59,2.77,2.77,0,0,1-.88-.92,2.72,2.72,0,0,1-.33-1.39,2.83,2.83,0,0,1,1.12-2.32,4.62,4.62,0,0,1,2.94-.89,5.29,5.29,0,0,1,2.42.56,4,4,0,0,1,1.71,1.66l-1.28.94a2.82,2.82,0,0,0-1.23-1.19,4,4,0,0,0-1.69-.36,2.89,2.89,0,0,0-1.53.37,1.18,1.18,0,0,0-.62,1,1.12,1.12,0,0,0,.29.8,2.08,2.08,0,0,0,.83.52,10.36,10.36,0,0,0,1.36.4c.49.11,1,.25,1.49.4a7,7,0,0,1,1.39.62,3,3,0,0,1,1,1,3,3,0,0,1,.39,1.61,3.45,3.45,0,0,1-.54,1.92,3.57,3.57,0,0,1-1.53,1.27A5.61,5.61,0,0,1,38.92,20.2Z" transform="translate(0 -3.57)"/>
    <path class="cls-1" d="M44.7,9.94V8.38h7.12V9.94ZM50,20.2a3.51,3.51,0,0,1-1.5-.32,2.27,2.27,0,0,1-1.05-1A3.83,3.83,0,0,1,47.1,17V5.27l2-1.13V16.52A2.93,2.93,0,0,0,49.44,18a1.16,1.16,0,0,0,1.11.54,3.25,3.25,0,0,0,.56-.06c.22,0,.46-.09.71-.16v1.56a4.89,4.89,0,0,1-.91.24A6.79,6.79,0,0,1,50,20.2Z" transform="translate(0 -3.57)"/>
  </g>
</svg>